<svg width="393" height="248" viewBox="0 0 393 248" fill="none" xmlns="http://www.w3.org/2000/svg">
<path d="M458 106.289C441 169.789 495 372.789 195 135.789C128.718 83.4263 -20 228.331 -20 169.789C-20 111.246 93.2324 -19.7114 170 -19.7114C246.768 -19.7114 476.5 -99.7114 458 106.289Z" fill="#3083FF"/>
<path d="M384.5 84.5C384.5 114.876 276.743 156.5 224 156.5C171.257 156.5 168.5 121.376 168.5 91C168.5 60.6243 211.257 36 264 36C316.743 36 384.5 54.1243 384.5 84.5Z" fill="#CC0000"/>
<path d="M220 41C224.872 93 90.7219 221 25 221C-40.7219 221 -52 126.452 -52 71.5C-52 16.5477 3.77811 -46 69.5 -46C135.222 -46 220 -13.9523 220 41Z" fill="#FF0000"/>
<path d="M88.2443 129.636C86.2841 129.636 84.6032 129.366 83.2017 128.827C81.8097 128.296 80.7017 127.572 79.8778 126.653C79.054 125.735 78.5189 124.703 78.2727 123.557L83.8693 122.804C84.0398 123.24 84.3097 123.647 84.679 124.026C85.0483 124.404 85.536 124.707 86.142 124.935C86.7576 125.171 87.5057 125.29 88.3864 125.29C89.7027 125.29 90.7869 124.968 91.6392 124.324C92.5009 123.689 92.9318 122.624 92.9318 121.128V117.136H92.6761C92.411 117.742 92.0133 118.315 91.483 118.855C90.9527 119.395 90.2708 119.835 89.4375 120.176C88.6042 120.517 87.6098 120.688 86.4545 120.688C84.8163 120.688 83.3248 120.309 81.9801 119.551C80.6449 118.784 79.5795 117.615 78.7841 116.043C77.9981 114.461 77.6051 112.463 77.6051 110.048C77.6051 107.577 78.0076 105.512 78.8125 103.855C79.6174 102.198 80.6875 100.957 82.0227 100.134C83.3674 99.3097 84.84 98.8977 86.4403 98.8977C87.6619 98.8977 88.6847 99.1061 89.5085 99.5227C90.3324 99.9299 90.9953 100.441 91.4972 101.057C92.0085 101.663 92.4015 102.259 92.6761 102.847H92.9034V99.1818H98.9119V121.213C98.9119 123.069 98.4574 124.622 97.5483 125.872C96.6392 127.122 95.3797 128.06 93.7699 128.685C92.1695 129.319 90.3277 129.636 88.2443 129.636ZM88.3722 116.142C89.3475 116.142 90.1714 115.901 90.8438 115.418C91.5256 114.925 92.0464 114.224 92.4062 113.315C92.7756 112.397 92.9602 111.298 92.9602 110.02C92.9602 108.741 92.7803 107.634 92.4205 106.696C92.0606 105.749 91.5398 105.015 90.858 104.494C90.1761 103.973 89.3475 103.713 88.3722 103.713C87.3778 103.713 86.5398 103.983 85.858 104.523C85.1761 105.053 84.66 105.792 84.3097 106.739C83.9593 107.686 83.7841 108.779 83.7841 110.02C83.7841 111.279 83.9593 112.368 84.3097 113.287C84.6695 114.196 85.1856 114.902 85.858 115.403C86.5398 115.896 87.3778 116.142 88.3722 116.142ZM113.585 121.426C111.379 121.426 109.471 120.957 107.861 120.02C106.26 119.073 105.025 117.757 104.153 116.071C103.282 114.376 102.847 112.411 102.847 110.176C102.847 107.922 103.282 105.953 104.153 104.267C105.025 102.572 106.26 101.256 107.861 100.318C109.471 99.3712 111.379 98.8977 113.585 98.8977C115.792 98.8977 117.695 99.3712 119.295 100.318C120.905 101.256 122.146 102.572 123.017 104.267C123.888 105.953 124.324 107.922 124.324 110.176C124.324 112.411 123.888 114.376 123.017 116.071C122.146 117.757 120.905 119.073 119.295 120.02C117.695 120.957 115.792 121.426 113.585 121.426ZM113.614 116.739C114.617 116.739 115.455 116.455 116.128 115.886C116.8 115.309 117.307 114.523 117.648 113.528C117.998 112.534 118.173 111.402 118.173 110.134C118.173 108.865 117.998 107.733 117.648 106.739C117.307 105.744 116.8 104.958 116.128 104.381C115.455 103.803 114.617 103.514 113.614 103.514C112.6 103.514 111.748 103.803 111.057 104.381C110.375 104.958 109.859 105.744 109.509 106.739C109.168 107.733 108.997 108.865 108.997 110.134C108.997 111.402 109.168 112.534 109.509 113.528C109.859 114.523 110.375 115.309 111.057 115.886C111.748 116.455 112.6 116.739 113.614 116.739ZM138.116 121.426C135.91 121.426 134.002 120.957 132.392 120.02C130.792 119.073 129.556 117.757 128.685 116.071C127.813 114.376 127.378 112.411 127.378 110.176C127.378 107.922 127.813 105.953 128.685 104.267C129.556 102.572 130.792 101.256 132.392 100.318C134.002 99.3712 135.91 98.8977 138.116 98.8977C140.323 98.8977 142.226 99.3712 143.827 100.318C145.437 101.256 146.677 102.572 147.548 104.267C148.42 105.953 148.855 107.922 148.855 110.176C148.855 112.411 148.42 114.376 147.548 116.071C146.677 117.757 145.437 119.073 143.827 120.02C142.226 120.957 140.323 121.426 138.116 121.426ZM138.145 116.739C139.149 116.739 139.987 116.455 140.659 115.886C141.331 115.309 141.838 114.523 142.179 113.528C142.529 112.534 142.705 111.402 142.705 110.134C142.705 108.865 142.529 107.733 142.179 106.739C141.838 105.744 141.331 104.958 140.659 104.381C139.987 103.803 139.149 103.514 138.145 103.514C137.132 103.514 136.279 103.803 135.588 104.381C134.906 104.958 134.39 105.744 134.04 106.739C133.699 107.733 133.528 108.865 133.528 110.134C133.528 111.402 133.699 112.534 134.04 113.528C134.39 114.523 134.906 115.309 135.588 115.886C136.279 116.455 137.132 116.739 138.145 116.739ZM160.83 121.355C159.172 121.355 157.671 120.929 156.327 120.077C154.991 119.215 153.931 117.951 153.145 116.284C152.368 114.608 151.98 112.553 151.98 110.119C151.98 107.619 152.383 105.541 153.188 103.884C153.992 102.217 155.063 100.972 156.398 100.148C157.742 99.3144 159.215 98.8977 160.815 98.8977C162.037 98.8977 163.055 99.1061 163.869 99.5227C164.693 99.9299 165.356 100.441 165.858 101.057C166.369 101.663 166.758 102.259 167.023 102.847H167.207V91.9091H173.244V121H167.278V117.506H167.023C166.739 118.112 166.336 118.713 165.815 119.31C165.304 119.897 164.636 120.384 163.812 120.773C162.998 121.161 162.004 121.355 160.83 121.355ZM162.747 116.54C163.723 116.54 164.546 116.275 165.219 115.744C165.901 115.205 166.421 114.452 166.781 113.486C167.151 112.52 167.335 111.388 167.335 110.091C167.335 108.794 167.155 107.667 166.795 106.71C166.436 105.754 165.915 105.015 165.233 104.494C164.551 103.973 163.723 103.713 162.747 103.713C161.753 103.713 160.915 103.983 160.233 104.523C159.551 105.062 159.035 105.811 158.685 106.767C158.334 107.723 158.159 108.831 158.159 110.091C158.159 111.36 158.334 112.482 158.685 113.457C159.045 114.423 159.561 115.181 160.233 115.73C160.915 116.27 161.753 116.54 162.747 116.54ZM188.362 99.1818V102.023H177.055V99.1818H188.362ZM180.35 93.9545H183.702V114.75C183.702 115.697 183.84 116.407 184.114 116.881C184.398 117.345 184.758 117.657 185.194 117.818C185.639 117.97 186.108 118.045 186.6 118.045C186.969 118.045 187.272 118.027 187.509 117.989C187.746 117.941 187.935 117.903 188.077 117.875L188.759 120.886C188.532 120.972 188.215 121.057 187.808 121.142C187.4 121.237 186.884 121.284 186.259 121.284C185.312 121.284 184.384 121.08 183.475 120.673C182.576 120.266 181.827 119.646 181.231 118.812C180.644 117.979 180.35 116.928 180.35 115.659V93.9545ZM202.317 121.455C200.215 121.455 198.402 120.991 196.877 120.062C195.362 119.125 194.192 117.818 193.369 116.142C192.554 114.456 192.147 112.496 192.147 110.261C192.147 108.027 192.554 106.057 193.369 104.352C194.192 102.638 195.338 101.303 196.806 100.347C198.283 99.3807 200.007 98.8977 201.977 98.8977C203.113 98.8977 204.235 99.0871 205.343 99.4659C206.451 99.8447 207.46 100.46 208.369 101.312C209.278 102.155 210.002 103.273 210.542 104.665C211.082 106.057 211.352 107.771 211.352 109.807V111.227H194.533V108.33H207.942C207.942 107.098 207.696 106 207.204 105.034C206.721 104.068 206.03 103.306 205.13 102.747C204.24 102.188 203.189 101.909 201.977 101.909C200.641 101.909 199.486 102.241 198.511 102.903C197.545 103.557 196.801 104.409 196.281 105.46C195.76 106.511 195.499 107.638 195.499 108.841V110.773C195.499 112.42 195.783 113.817 196.352 114.963C196.929 116.099 197.729 116.966 198.752 117.562C199.775 118.15 200.963 118.443 202.317 118.443C203.198 118.443 203.994 118.32 204.704 118.074C205.424 117.818 206.044 117.439 206.565 116.938C207.085 116.426 207.488 115.792 207.772 115.034L211.011 115.943C210.67 117.042 210.097 118.008 209.292 118.841C208.487 119.665 207.493 120.309 206.309 120.773C205.125 121.227 203.795 121.455 202.317 121.455ZM222.871 121.511C221.489 121.511 220.234 121.251 219.107 120.73C217.98 120.2 217.085 119.438 216.423 118.443C215.76 117.439 215.428 116.227 215.428 114.807C215.428 113.557 215.674 112.544 216.167 111.767C216.659 110.981 217.317 110.366 218.141 109.92C218.965 109.475 219.874 109.144 220.869 108.926C221.872 108.699 222.881 108.519 223.894 108.386C225.22 108.216 226.295 108.088 227.119 108.003C227.952 107.908 228.558 107.752 228.937 107.534C229.325 107.316 229.519 106.937 229.519 106.398V106.284C229.519 104.883 229.136 103.794 228.369 103.017C227.611 102.241 226.46 101.852 224.917 101.852C223.317 101.852 222.062 102.203 221.153 102.903C220.244 103.604 219.604 104.352 219.235 105.148L216.053 104.011C216.621 102.686 217.379 101.653 218.326 100.915C219.282 100.167 220.324 99.6458 221.451 99.3523C222.587 99.0492 223.705 98.8977 224.803 98.8977C225.504 98.8977 226.309 98.983 227.218 99.1534C228.137 99.3144 229.022 99.6506 229.874 100.162C230.736 100.673 231.451 101.445 232.019 102.477C232.587 103.509 232.871 104.892 232.871 106.625V121H229.519V118.045H229.349C229.121 118.519 228.743 119.026 228.212 119.565C227.682 120.105 226.977 120.564 226.096 120.943C225.215 121.322 224.14 121.511 222.871 121.511ZM223.383 118.5C224.709 118.5 225.826 118.24 226.735 117.719C227.654 117.198 228.345 116.526 228.809 115.702C229.282 114.878 229.519 114.011 229.519 113.102V110.034C229.377 110.205 229.065 110.361 228.582 110.503C228.108 110.635 227.559 110.754 226.934 110.858C226.318 110.953 225.717 111.038 225.13 111.114C224.552 111.18 224.084 111.237 223.724 111.284C222.853 111.398 222.038 111.582 221.281 111.838C220.532 112.084 219.926 112.458 219.462 112.96C219.008 113.453 218.781 114.125 218.781 114.977C218.781 116.142 219.211 117.023 220.073 117.619C220.944 118.206 222.048 118.5 223.383 118.5ZM247.854 121.455C245.808 121.455 244.047 120.972 242.57 120.006C241.092 119.04 239.956 117.709 239.161 116.014C238.365 114.319 237.967 112.383 237.967 110.205C237.967 107.989 238.375 106.033 239.189 104.338C240.013 102.634 241.159 101.303 242.626 100.347C244.104 99.3807 245.827 98.8977 247.797 98.8977C249.331 98.8977 250.714 99.1818 251.945 99.75C253.176 100.318 254.184 101.114 254.97 102.136C255.756 103.159 256.244 104.352 256.433 105.716H253.081C252.825 104.722 252.257 103.841 251.376 103.074C250.505 102.297 249.331 101.909 247.854 101.909C246.547 101.909 245.401 102.25 244.416 102.932C243.441 103.604 242.679 104.556 242.129 105.787C241.589 107.009 241.32 108.443 241.32 110.091C241.32 111.777 241.585 113.244 242.115 114.494C242.655 115.744 243.412 116.715 244.388 117.406C245.373 118.098 246.528 118.443 247.854 118.443C248.725 118.443 249.516 118.292 250.226 117.989C250.936 117.686 251.537 117.25 252.03 116.682C252.522 116.114 252.873 115.432 253.081 114.636H256.433C256.244 115.924 255.775 117.084 255.027 118.116C254.288 119.139 253.308 119.954 252.087 120.56C250.875 121.156 249.464 121.455 247.854 121.455ZM264.686 107.875V121H261.334V91.9091H264.686V102.591H264.97C265.482 101.464 266.249 100.569 267.271 99.9062C268.304 99.2339 269.677 98.8977 271.391 98.8977C272.877 98.8977 274.179 99.196 275.297 99.7926C276.414 100.38 277.281 101.284 277.896 102.506C278.521 103.718 278.834 105.261 278.834 107.136V121H275.482V107.364C275.482 105.631 275.032 104.291 274.132 103.344C273.242 102.387 272.006 101.909 270.425 101.909C269.326 101.909 268.341 102.141 267.47 102.605C266.608 103.069 265.927 103.746 265.425 104.636C264.932 105.527 264.686 106.606 264.686 107.875ZM294.114 121.455C292.012 121.455 290.199 120.991 288.674 120.062C287.159 119.125 285.989 117.818 285.165 116.142C284.351 114.456 283.944 112.496 283.944 110.261C283.944 108.027 284.351 106.057 285.165 104.352C285.989 102.638 287.135 101.303 288.603 100.347C290.08 99.3807 291.804 98.8977 293.773 98.8977C294.91 98.8977 296.032 99.0871 297.14 99.4659C298.248 99.8447 299.256 100.46 300.165 101.312C301.075 102.155 301.799 103.273 302.339 104.665C302.879 106.057 303.148 107.771 303.148 109.807V111.227H286.33V108.33H299.739C299.739 107.098 299.493 106 299.001 105.034C298.518 104.068 297.826 103.306 296.927 102.747C296.037 102.188 294.986 101.909 293.773 101.909C292.438 101.909 291.283 102.241 290.308 102.903C289.342 103.557 288.598 104.409 288.077 105.46C287.557 106.511 287.296 107.638 287.296 108.841V110.773C287.296 112.42 287.58 113.817 288.148 114.963C288.726 116.099 289.526 116.966 290.549 117.562C291.572 118.15 292.76 118.443 294.114 118.443C294.995 118.443 295.79 118.32 296.501 118.074C297.22 117.818 297.841 117.439 298.362 116.938C298.882 116.426 299.285 115.792 299.569 115.034L302.808 115.943C302.467 117.042 301.894 118.008 301.089 118.841C300.284 119.665 299.29 120.309 298.106 120.773C296.922 121.227 295.592 121.455 294.114 121.455ZM308.248 121V99.1818H311.487V102.477H311.714C312.112 101.398 312.831 100.522 313.873 99.8494C314.915 99.1771 316.089 98.8409 317.396 98.8409C317.642 98.8409 317.95 98.8456 318.319 98.8551C318.688 98.8646 318.968 98.8788 319.157 98.8977V102.307C319.043 102.278 318.783 102.236 318.376 102.179C317.978 102.113 317.557 102.08 317.112 102.08C316.051 102.08 315.104 102.302 314.271 102.747C313.447 103.183 312.793 103.789 312.31 104.565C311.837 105.332 311.6 106.208 311.6 107.193V121H308.248Z" fill="white"/>
</svg>
